<?xml version="1.0" encoding="utf-8"?>
<!-- Generator: Adobe Illustrator 26.0.3, SVG Export Plug-In . SVG Version: 6.00 Build 0)  -->
<svg version="1.1" id="Layer_1" xmlns="http://www.w3.org/2000/svg" xmlns:xlink="http://www.w3.org/1999/xlink" x="0px" y="0px"
	 viewBox="0 0 288 288" style="enable-background:new 0 0 288 288;" xml:space="preserve">
<style type="text/css">
	.st0{opacity:0.2;fill:#BCA270;enable-background:new    ;}
	.st1{fill:#BCA270;}
	.st2{fill:#363434;}
</style>
<polygon class="st0" points="63.06,186.78 39.26,168.78 248.86,88.18 248.86,128.58 248.86,168.78 225.06,186.78 "/>
<g>
	<path class="st1" d="M202.86,31.58c-0.6-0.8-1.8-1.4-3-1.4H83.66c-1.2,0-2.4,0.6-3,1.6l-44.6,53.8c-0.4,0.6-0.8,1.6-0.8,2.6v80.8
		c0,1.2,0.6,2.4,1.6,3.2l23.8,18c1.8,1.4,4.2,1,5.6-0.8c0.6-0.8,0.8-1.8,0.8-3s-0.6-2-1.6-2.8l0,0l-22.2-16.8v-77.2l42.2-51.2h112.6
		l46.8,51.2v77.2l-22.2,16.8c-0.8,0.6-1.4,1.6-1.6,2.8c-0.2,1,0.2,2,0.8,3c0.6,0.8,1.6,1.4,2.8,1.6c1,0.2,2-0.2,3-0.8l23.8-18
		c1-0.6,1.6-1.8,1.6-3.2v-80.8c0-1-0.4-2-1-2.8L202.86,31.58z"/>
</g>
<g>
	<path class="st2" d="M96.26,162.18c2.2,0,4.2-1.8,4.2-4.2v-34h87.2v34c0,2.2,1.8,4.2,4.2,4.2s4.2-1.8,4.2-4.2v-38c0-1-0.6-2-1.2-3
		c-0.6-0.6-1.8-1.2-3-1.2h-95.6c-1,0-2,0.6-3,1.2c-0.6,0.6-1.2,1.8-1.2,3v38.2C92.46,160.38,94.06,162.18,96.26,162.18z"/>
	<path class="st2" d="M201.26,182.78H86.86c-2.2,0-4.2,1.8-4.2,4.2s1.8,4.2,4.2,4.2h11.2l18.2,63.8c0.6,1.8,2,3,4,3h47.8
		c1.8,0,3.4-1.2,4-3l18.2-63.8h11.2c2.2,0,4.2-1.8,4.2-4.2S203.46,182.78,201.26,182.78z M139.86,249.38h-16.6l-8.6-30h25.4v30
		H139.86z M139.86,211.18h-27.4l-5.8-20.6h33.6L139.86,211.18L139.86,211.18z M164.66,249.38h-16.8v-30h25.4L164.66,249.38z
		 M175.66,211.18h-27.8v-20.4h33.6L175.66,211.18z"/>
</g>
</svg>
