<?xml version="1.0" encoding="utf-8"?>
<!-- Generator: Adobe Illustrator 26.1.0, SVG Export Plug-In . SVG Version: 6.00 Build 0)  -->
<svg version="1.1" id="Layer_1" xmlns="http://www.w3.org/2000/svg" xmlns:xlink="http://www.w3.org/1999/xlink" x="0px" y="0px"
	 viewBox="0 0 265.4 180.2" style="enable-background:new 0 0 265.4 180.2;" xml:space="preserve">
<style type="text/css">
	.st0{fill:#BCA270;}
	.st1{fill:none;stroke:#BCA270;stroke-width:0.202;stroke-miterlimit:10;}
	.st2{fill:#FFFFFF;}
</style>
<g id="Gold">
	<polygon class="st0" points="159.9,22.3 160,35.7 149.9,35.7 149.9,22.2 159.9,22.2 	"/>
	<polygon class="st1" points="159.9,22.3 160,35.7 149.9,35.7 149.9,22.2 159.9,22.2 	"/>
	<polygon class="st0" points="137.1,1.4 137.2,1.4 137.2,9.3 123.5,9.3 123.5,1.4 123.6,1.4 	"/>
	<polygon class="st1" points="137.1,1.4 137.2,1.4 137.2,9.3 123.5,9.3 123.5,1.4 123.6,1.4 	"/>
	<polygon class="st0" points="110.6,35.7 100.7,35.7 100.7,22.3 100.7,22.2 110.6,22.2 	"/>
	<polygon class="st1" points="110.6,35.7 100.7,35.7 100.7,22.3 100.7,22.2 110.6,22.2 	"/>
	<path class="st0" d="M137.1,75.8c-0.5,0.3-1,0.6-1.5,0.8c-0.1,0-0.1,0.1-0.2,0.1c-1.6,0.8-3.2,1.6-4.7,2.2l-0.4,0.2l-0.4-0.2
		c-1.5-0.6-3-1.3-4.7-2.1l0,0c0,0-0.8-0.4-1.8-0.9V64.8c1.9,1.3,3.9,2.5,6.2,3.4l0.5,0.2l0.5-0.2c2.3-1,4.4-2.1,6.4-3.5L137.1,75.8
		C137.1,75.8,137.1,75.8,137.1,75.8L137.1,75.8z"/>
	<path class="st1" d="M137.1,75.8c-0.5,0.3-1,0.6-1.5,0.8c-0.1,0-0.1,0.1-0.2,0.1c-1.6,0.8-3.2,1.6-4.7,2.2l-0.4,0.2l-0.4-0.2
		c-1.5-0.6-3-1.3-4.7-2.1l0,0c0,0-0.8-0.4-1.8-0.9V64.8c1.9,1.3,3.9,2.5,6.2,3.4l0.5,0.2l0.5-0.2c2.3-1,4.4-2.1,6.4-3.5L137.1,75.8
		C137.1,75.8,137.1,75.8,137.1,75.8L137.1,75.8z"/>
	<g>
		<path class="st0" d="M130.2,66.9L130.2,66.9L130.2,66.9z"/>
		<path class="st0" d="M148.5,10.7H112v28.6c0,0.8,0.1,4.4,1.4,8.9l0,0c0.6-0.8,1.4-2.1,2.2-3.5l0.1-0.2c0.9-1.6,1.6-3,2-4.3
			l0.1-0.2c0,0,0-0.1,0-0.1c0.1-0.3,0.2-0.5,0.2-0.8c0.1-0.5,0.2-1.1,0.3-1.6l0.1-0.3c0.4-1.8,0.7-3.2,1.1-4.2
			c0.2-0.5,0.5-1.2,0.9-1.7c0.6-0.7,1.3-1,2.1-0.9c0.2,0,0.3,0.1,0.5,0.1c-0.1-2.1,0-5.1,1.1-7.9c0.2-0.5,0.4-1,0.7-1.5
			c0.6-1.1,1.4-2.2,2.5-2.6c0.7-0.2,1.6,0,2.1,0.5c0.1-0.2,0.3-0.4,0.4-0.5c0.2-0.2,0.3-0.3,0.5-0.5l0.2-0.2c0.4-0.4,0.7-0.8,1-1.3
			c0.1-0.2,0.3-0.4,0.4-0.7c0.2-0.3,0.3-0.6,0.5-0.9c0.7-1.1,1.6-1.5,2.5-1.3c0.8,0.2,1.1,0.9,1.4,1.5c0.5,1.4,0.5,3,0.5,4.3
			c0,0,0,0.1,0,0.1c0.3-0.4,0.8-1.4,0.8-1.4c0-0.1,0.1-0.1,0.1-0.2c0.2-0.4,0.8-1.8,1.6-2.4c0.4-0.3,0.8-0.4,0.9-0.5
			c0.2-0.1,0.4-0.3,0.5-0.4c0.4-0.4,0.6-0.6,1.2-0.7c1.2-0.4,2.4,0.5,2.8,1.5c0.3,0.7,0.2,1.6,0.2,2.4v0.1c0,0.2,0,0.3,0,0.4
			c0,0.1,0.1,0.2,0.2,0.3l0.1,0.1c0.6,0.9,0.6,2,0.1,3.3c-0.1,0.3-0.3,0.6-0.5,0.9c-0.1,0.1-0.2,0.2-0.3,0.3c0,0,0,0-0.1,0.1
			c0.2,0,1.3-0.7,2.1-0.1c1,0.7,1,2.6,0.3,4.3c-0.4,1.1-1.1,2-1.8,2.9l-0.4,0.5c-0.1,0.2-0.8,0.9-1.2,1.3c0.1,0.1,0.2,0.2,0.4,0.3
			c0.1,0.1,0.2,0.2,0.2,0.4c0.4,0.6,0.5,1.3,0.3,2.1c-0.1,0.6-0.4,1.2-0.8,1.7c-0.4,0.5-0.9,1.2-1.8,1.8c-1.4,1-2.3,1.3-3.2,1.5
			c-0.1,0-0.2,0-0.3,0.1c-0.9,0.2-2.4,0.4-3.1,0.4c-0.7,0-2.4,0-3.5,0.2c-0.4,0.1-0.9,0.3-0.6,0.7c0.2,0.3,0.5,0.5,0.8,0.6
			c0.5,0.2,1,0.5,1.3,0.9c0.2,0.3,0.3,0.8,0.2,1.2c-0.1,0.4-0.3,0.7-0.5,1c-0.8,1.1-2.2,1.4-3.5,1.4c-0.9,0-1.8-0.2-2.8-0.2
			c-2.3-0.2-4.7,0-6.6,1.3c-0.2,0.2-0.4,0.4-0.5,0.6c-0.1,0.3,0,0.6,0.2,0.7c0.4,0.2,0.8-0.1,1-0.5l0,0c0.1-0.2,0.2-0.3,0.3-0.5
			c0.6-0.6,1.6-1,2.5-0.5c0.1,0,1.1-0.2,1.8-0.2c0.8,0,2.3,0,3.4,1.3c0,0,0.4,0.5,0.8,0.8c0,0,0,0,0,0c0,0,0.1,0.1,0.1,0.1
			c0,0.1,0,0.1,0,0.2c0,0,0,0,0,0c-0.3,0.4-0.4,1-0.4,1c-0.5,1.7-2,2.4-2.7,2.7c-0.6,0.2-1.8,0.3-1.8,0.3c-0.6,0.8-1.6,0.9-2.3,0.6
			c-0.9-0.4-1.6-1.3-1.9-2.4l0,0c-0.2-0.8-0.8-1.3-1.1-1.5c-1-0.4-1.7-0.6-2.8-0.4c-0.8,0.2-1.6,0.8-2.2,1.5c0,0,0,0,0,0
			c3.1,7.1,8.3,12.2,15.5,15.2c7.7-3.2,13.1-8.7,16-16.5c2.1-5.5,2.2-10.2,2.2-11.1L148.5,10.7z"/>
	</g>
	<polyline points="130.2,66.9 130.2,66.9 130.2,66.9 130.2,66.9 	"/>
	<path class="st2" d="M124.1,48.6C124.1,48.6,124.1,48.6,124.1,48.6C124.2,48.5,124.2,48.5,124.1,48.6c0.5-0.1,1.2-0.2,1.7-0.2
		c0.1,0,0.2,0,0.3,0c1,0,1.7,0.3,2.3,1c0,0,0.1,0.1,0.2,0.2l0.1,0.1c0.1,0.1,0.1,0.2,0.1,0.2c0,0,0,0.1,0,0.1
		c-0.2,0.9-1.1,1.7-2.2,2c-0.3,0.1-1.2,0.3-1.7,0.3c-0.2,0-0.4-0.2-0.5-0.3c-0.2-0.2-0.3-0.7-0.4-0.8
		C123.9,50.1,123.9,49.4,124.1,48.6"/>
	<path class="st2" d="M122.1,48.7c0.2-0.2,0.5-0.3,0.8-0.3c0.1,0,0.1,0,0.2,0c0,0,0,0,0,0c0,0,0,0,0,0c0,0,0,0,0,0
		c-0.5,1.1-0.5,2.3,0.1,3.9c0.1,0.3,0.1,0.5,0,0.7c-0.1,0.2-0.4,0.2-0.4,0.2l0,0c-0.6,0.1-1.1-0.6-1.3-1.8
		C121.4,50.5,121.5,49.3,122.1,48.7"/>
	<path class="st2" d="M143.6,30.1c-0.4,0.4-0.8,0.8-1.1,1.1c-1,0.9-2.4,1.4-2.5,1.4c-0.6,0.2-1.2,0.3-1.7,0.4
		c-0.6,0.1-0.9,0.1-1.1,0.1c-0.1,0-0.1,0-0.2,0c-0.3,0-0.6,0.1-0.7,0.3c-0.1,0.2-0.1,0.4-0.1,0.4c0.1,0.1,0.2,0.3,0.6,0.3
		c1.1,0,2.1-0.1,2.9-0.4c0.2-0.1,0.4-0.1,0.6-0.2c0.6-0.2,1.2-0.5,1.8-0.3c0.4,0.1,0.5,0.3,0.6,0.4c0.1,0.1,0.1,0.2,0.1,0.4
		c0.1,0.6-0.2,1.3-0.5,1.8c-0.3,0.4-0.8,1-1.5,1.5c-1.2,0.9-1.9,1-2.7,1.2c-0.1,0-0.2,0-0.3,0.1c-0.9,0.2-1.9,0.3-2.9,0.4l-0.6,0
		c-0.7,0-1.4,0.1-2.1,0.2h0c-0.7,0.1-1.4,0.3-2,0.7c-0.4,0.3-0.6,0.7-0.6,1.1c0,0.4,0.1,0.8,0.3,1.2c0.1,0.2,0.3,0.5,0.5,0.7
		c0.1,0.2,0.3,0.3,0.4,0.5c0.2,0.4,0.2,0.8,0.1,1.1c-0.5,0.8-2.2,0.7-2.3,0.7c-0.2,0-0.5,0-0.7,0c-0.4,0-0.8,0-1.2,0h-0.1
		c-0.8,0-1.6,0-2.3,0.2c-1.5,0.2-2.8,0.6-3.8,1.2c-0.4,0.2-0.8,0.5-1.2,0.7l0,0c-2.6,1.6-3.9,2-4,2l1.6-2.2c0.9-1.3,1.8-2.6,2.7-3.3
		c1-0.8,2.3-1.1,3.8-1.1c1.4,0,2.8,0.3,3.7,0.6c0,0,0.1,0,0.1,0l0.1,0c0.1,0,0.1,0,0.2,0.1c0.3,0.1,0.6,0.2,0.9,0.1
		c0.1-0.1,0.1-0.2,0.1-0.2c0.1-0.2-0.1-0.4-0.3-0.5c-2.4-1-4.8-1.4-7.3-1c0,0,0,0,0,0l0-0.1c0.1-0.1,0.1-0.2,0.2-0.2
		c0.2-0.2,0.4-0.5,0.7-0.8c0.6-0.6,1.1-1.2,1.6-1.7c0.2-0.2,0.3-0.3,0.6-0.5c1-0.7,2.4-1,3.6-1.3l0,0c1.3-0.3,2.5-0.5,3.5-0.5
		c0.1,0,0.2,0,0.3,0l1.8,0c2.2,0.1,4.5,0.2,6.2-0.7l0,0l0,0c0,0,0.1,0,0.1,0l0,0c0,0,0,0,0,0c0.1-0.1,0.3-0.2,0.4-0.3
		c0.1,0,0.1-0.1,0.1-0.1c0,0,0.1-0.1,0.1-0.2c0-0.1,0-0.1,0-0.2c0-0.1,0-0.1,0-0.1c-0.1-0.2-0.2-0.2-0.5-0.1c0,0-0.1,0-0.1,0.1
		c-1.2,0.7-2.6,1.1-5.8,0.8c-0.9-0.1-1.6-0.1-2.3-0.1c-0.1,0-0.2,0-0.2,0c-1.7,0-3,0.2-4.1,0.5l-1.1,0.3l0.8-0.7
		c0.6-0.5,1.1-1,1.9-1.5c0.8-0.6,1.8-1.4,2.8-1.8c0.6-0.3,1.2-0.4,1.8-0.5h0c1-0.2,2.1-0.5,3.2-0.7c0.3,0,0.6-0.1,0.8-0.1l0,0
		c1.2-0.2,2.3-0.4,3.4-1c1.2-0.7,2.2-1.8,2.8-3.1c0.1-0.1,0-0.2-0.1-0.3c-0.1,0-0.2,0-0.3,0.1c-1.1,1.9-3.2,2.7-4.7,3.2
		c-0.9,0.3-1.9,0.4-2.9,0.6l-0.1,0c-0.6,0.1-1.3,0.2-1.9,0.4c1.8-1.4,3.4-3.3,4.7-5.6c1.4-2.5,2.8-5.2,3.8-7.5
		c0-0.1,0.1-0.1,0.1-0.2c0,0,0-0.1,0-0.1c0,0,0-0.1-0.1-0.1c0,0-0.1-0.1-0.1-0.1c-0.1,0-0.2,0-0.4,0.1c0,0,0,0,0,0
		c-1.1,2.4-2.5,5-4.1,7.5c-1.5,2.4-3.3,4.4-5.3,5.7c0.6-1.6,0.6-3.4,0.5-5.2c0-0.3,0-0.5,0-0.8c-0.1-1.9,0-3.8,0.3-5.6
		c0-0.1-0.1-0.2-0.1-0.2c-0.1,0-0.2,0-0.2,0.1c-0.3,0.5-0.4,1.2-0.5,2c-0.1,1.1-0.2,2.3-0.1,3.8c0.1,1.2,0.1,2.5-0.1,3.8
		c-0.2,1.2-0.7,2.1-1.1,2.7c-0.5,0.7-1.3,1.2-1.9,1.6c-0.8,0.5-1.4,1-2.1,1.6l-1,0.8l0-0.1c0.3-1.1,0.4-2.4,0.5-4.1
		c0-0.8,0-1.6-0.1-2.5c-0.1-2.1-0.3-4.1,0.6-5.8c0,0,0-0.1,0-0.1c0,0,0-0.1,0-0.1c0,0,0-0.1-0.1-0.1c0,0-0.1-0.1-0.1-0.1
		c-0.2-0.1-0.3,0-0.4,0.1c0,0,0,0,0,0.1c0,0,0,0,0,0c-1.2,1.8-1.1,4.3-1,6.7l0,1.8c0,1.7-0.2,3.5-0.8,5c-0.2,0.6-0.7,1-1.1,1.5
		l-0.3,0.3c-0.5,0.5-1,1-1.4,1.5l-0.1,0.1c-0.2,0.2-0.3,0.3-0.4,0.5l-0.1,0.1c-0.1,0.1-0.1,0.1-0.2,0.2c0.2-1,0.4-1.9,0.5-2.9
		c0-0.3,0.1-1.4,0.1-1.8c0-0.1-0.1-0.3-0.3-0.3l0,0c-0.2,0-0.3,0.2-0.3,0.4c0,0,0,0.3-0.1,0.6c-0.3,2-0.8,4.9-2.3,7.1
		c-0.8,1.2-4,5.4-4.6,6.3c0,0,0,0.1-0.1,0.2c-0.1-0.2-0.1-0.4-0.2-0.5l0,0c0,0,0,0,0,0c0.6-1,4.5-6.8,5.2-9.8
		c0.2-0.7,0.3-1.3,0.4-1.9l0,0c0.3-1.5,0.6-3.1,1.1-4.5c0.2-0.6,0.6-1.3,1-1.4c0.2,0,0.4,0,0.7,0.2c0.2,0.2,0.3,0.4,0.4,0.7
		c0.1,0.3,0.1,0.6,0.1,0.9c0,0.3,0,0.6,0.1,0.9c0.1,0.3,0.3,0.6,0.6,0.7c0.2,0,0.3,0,0.4-0.2s0.2-0.4,0.2-0.6c0.1-0.6,0-1.2,0-1.8
		v-0.1c0-0.3,0-0.7,0-1c0-1.2,0.1-2.5,0.2-3.7c0.1-1.1,0.3-2.4,0.6-3.6c0.2-0.9,0.6-1.8,1.1-2.6c0.2-0.4,0.5-0.8,0.8-1.1l0.1-0.1
		c0.1-0.2,0.3-0.3,0.4-0.5l0,0l0,0c0.1-0.1,0.6-0.5,1.3-0.2h0c0.2,0.1,0.8,0.4,0.4,2.5c0,0.1-0.1,0.2-0.1,0.4c0,0.2-0.1,0.3-0.1,0.4
		c-0.1,0.2-0.1,0.4-0.1,0.6v0c-0.1,0.4-0.2,0.7-0.3,1.1c-0.1,0.3-0.1,0.6-0.2,0.8v0c-0.1,0.3-0.2,0.7-0.2,1
		c-0.1,0.6-0.2,1.3,0.2,1.5c0.1,0.1,0.2,0,0.3,0c0.7-0.2,0.8-1,0.8-1.7c0-0.1,0-0.2,0-0.3l0.3-2.6c0-0.1,0-0.3,0-0.5
		c0.1-0.6,0.1-1.2,0.3-1.8c0.2-0.6,0.6-1,1-1.5c0.1-0.2,0.3-0.4,0.5-0.5c0.4-0.5,0.9-1,1.2-1.5c0.1-0.2,0.4-0.7,0.4-0.7l0,0
		c0.1-0.2,0.2-0.4,0.3-0.5c0.4-0.6,0.8-1.4,1.7-1.1c1,0.3,1,1.7,1,2.5v0c0,0.1,0,0.3,0,0.4c0,1.2-0.2,2.1-0.3,2.8v0
		c-0.1,0.4-0.1,0.7-0.1,0.9c0,0.3,0.1,0.5,0.3,0.5c0.1,0,0.1,0,0.2,0c0.7,0,1.6-1.3,2.3-2.6c0.2-0.3,0.4-0.7,0.5-1l0,0
		c0.3-0.5,0.6-1.1,0.9-1.6c0.1-0.1,0.2-0.3,0.3-0.4c0.2-0.2,0.5-0.2,0.7-0.1c0.2,0.1,0.4,0,0.6-0.2c0,0,0.1-0.1,0.1-0.1c0,0,0,0,0,0
		l0.1-0.1c0,0,0,0,0,0c0.2-0.2,0.4-0.5,0.7-0.6c0.3-0.1,0.5-0.1,0.8,0c0.4,0.2,0.6,0.6,0.7,0.8c0.1,0.5,0,1,0,1.3c0,0,0,0,0,0.1
		c0,0.1-0.1,0.2-0.1,0.3c-0.1,0.2-0.1,0.3-0.1,0.5c0,0.1,0.1,0.2,0.2,0.4l0.1,0.1c0.4,0.5,0.5,1.2,0.2,2.1c-0.3,0.9-1,1.8-1.6,2.5
		l-0.1,0.1c-0.1,0.1-0.2,0.2-0.3,0.4c-0.1,0.2-0.3,0.4-0.5,0.6l0,0c-0.2,0.2-0.5,0.5-0.7,0.9c-0.2,0.4-0.3,0.6-0.1,0.7
		c0.1,0.1,0.2,0.1,0.3,0.1c0.7,0,2.1-0.6,2.4-0.9l0,0c0.5-0.3,1.1-0.6,1.5-0.6c0.3,0,0.6,0.2,0.8,0.5c0.1,0.2,0.2,0.5,0.2,0.8
		C145.9,27.5,144.6,29,143.6,30.1"/>
	<path class="st0" d="M161.3,35V0h-62v35c0,0.3-0.2,7.3,2.8,16.2c2.6,7.6,8,17.9,19.3,25c1.2,0.8,3.5,2,3.5,2l0,0
		c1.7,0.9,3.3,1.6,4.9,2.3l0.4,0.2l0.4-0.2c1.6-0.6,3.2-1.4,4.9-2.3c0.1,0,0.1-0.1,0.2-0.1c1.4-0.8,3.6-2.1,3.6-2.1
		c11.1-7.2,16.5-17.3,19-24.8C161.4,42.4,161.3,35.4,161.3,35 M157.2,50.7c-0.1,0.3-0.2,0.6-0.3,1c-2.5,7.1-7.6,16.3-17.9,23
		c0,0-0.5,0.3-1.2,0.8c-0.2,0.1-0.4,0.3-0.7,0.4h0c-0.5,0.3-1,0.6-1.5,0.8c-0.1,0-0.1,0.1-0.2,0.1c-1.6,0.8-3.2,1.6-4.7,2.2
		l-0.4,0.1l-0.4-0.2c-1.5-0.6-3-1.3-4.7-2.1l0,0c0,0-2.2-1.1-3.3-1.9c-10.5-6.6-15.6-16-18.2-23.2c-0.1-0.3-0.2-0.6-0.3-1
		c-2.4-7-2.7-12.8-2.8-14.9V22.3V1.4h22.9h13.5h22.8l0,20.9l0,13.5C159.9,37.8,159.6,43.7,157.2,50.7"/>
</g>
<g id="Black">
	<g>
		<path class="st0" d="M26.1,138.7v-0.6h5.5v0.6c-1.9,0-2.1,0.4-2.1,2.6v5.2c0,3.5-2.4,5.4-5.4,5.4c-3,0-5.4-1.9-5.4-5.4v-5.2
			c0-2.2-0.3-2.6-2.1-2.6v-0.6h7.1v0.6c-1.9,0-2.1,0.4-2.1,2.6v4.9c0,2.9,1.5,4.2,3.5,4.2s3.3-1.3,3.3-4.2v-4.9
			C28.2,139.1,28,138.7,26.1,138.7z"/>
		<path class="st0" d="M54.7,141.3c0-2.2-0.3-2.6-2.2-2.6v-0.6h5.3v0.6c-1.9,0-2.2,0.4-2.2,2.6v10.6h-0.6l-9.3-11.1v7.4
			c0,2.2,0.3,2.6,2.2,2.6v0.6h-5.3v-0.6c1.9,0,2.1-0.4,2.1-2.6v-6.9c0-2.2-0.3-2.6-2.1-2.6v-0.6h4.5l7.5,8.9
			C54.7,147,54.7,141.3,54.7,141.3z"/>
		<path class="st0" d="M69.1,151.5v-0.6c1.9,0,2.1-0.4,2.1-2.6v-6.9c0-2.2-0.3-2.6-2.1-2.6v-0.6h7.1v0.6c-1.9,0-2.2,0.4-2.2,2.6v6.9
			c0,2.2,0.3,2.6,2.2,2.6v0.6H69.1z"/>
		<path class="st0" d="M98.8,140.7l-4.9,11.2h-0.5l-4.9-11.2c-0.6-1.5-0.9-2-2.7-2v-0.6h7.3v0.6c-2,0-2.2,0.5-1.7,1.7l3.1,7.3
			l3.2-7.3c0.5-1.2,0.2-1.7-1.7-1.7v-0.6h5.4v0.6C100,138.7,99.5,139.1,98.8,140.7z"/>
		<path class="st0" d="M111.2,150.9c1.9,0,2.1-0.4,2.1-2.6v-6.9c0-2.2-0.3-2.6-2.1-2.6v-0.6h11.5l0.2,3.2h-0.7l-0.1-0.4
			c-0.3-1.2-0.5-1.7-2.6-1.7h-3.4v4.8h1.2c2.2,0,2.6-0.3,2.6-2.1h0.7v5.3H120c0-1.9-0.4-2.1-2.6-2.1h-1.2v3c0,2.2,0.3,2.6,2.2,2.6h2
			c2.1,0,2.3-0.5,2.6-1.7l0.1-0.4h0.7l-0.2,3.2h-12.3V150.9z"/>
		<path class="st0" d="M145.9,148c2,2.2,2.8,2.7,4.2,2.9v0.6h-4.9l-4-5.9h-0.6v2.6c0,2.2,0.3,2.6,2.1,2.6v0.6h-7.1v-0.6
			c1.9,0,2.1-0.4,2.1-2.6v-6.9c0-2.2-0.3-2.6-2.1-2.6v-0.6h7.5c2.8,0,4.5,1.7,4.5,3.8c0,1.9-1.5,3.5-4,3.8L145.9,148z M144.6,141.9
			c0-1.5-0.9-2.8-2.9-2.8h-1.2v5.5h1.2C143.7,144.6,144.6,143.4,144.6,141.9z"/>
		<path class="st0" d="M161.3,151.9h-0.6V147h0.6c0.4,2.4,2.3,3.9,4.1,3.9c1.3,0,2.2-0.7,2.2-2.2c0-0.8-0.6-1.7-1.7-2.3l-2.1-1.1
			c-1.9-1-3-2-3-4.2c0-1.8,1.7-3.4,3.9-3.4c1.3,0,2.1,0.4,2.7,0.9c0.3-0.2,0.5-0.6,0.6-1h0.6v4.9h-0.6c-0.2-1.8-0.9-3.8-3.2-3.8
			c-0.9,0-1.8,0.7-1.8,1.8c0,0.7,0.6,1.7,1.8,2.3l2.1,1.1c1.6,0.8,2.9,2.2,2.9,4c0,2.4-2.1,4.1-4.5,4.1c-1.7,0-2.8-0.9-3.5-1.1
			C161.7,151.1,161.4,151.4,161.3,151.9z"/>
		<path class="st0" d="M181.2,151.5v-0.6c1.9,0,2.1-0.4,2.1-2.6v-6.9c0-2.2-0.3-2.6-2.1-2.6v-0.6h7.1v0.6c-1.9,0-2.1,0.4-2.1,2.6
			v6.9c0,2.2,0.3,2.6,2.1,2.6v0.6H181.2z"/>
		<path class="st0" d="M213,141.2h-0.6l-0.1-0.4c-0.3-1.2-0.5-1.7-2.6-1.7h-2.2v9.2c0,2.2,0.3,2.6,2.1,2.6v0.6h-7.1v-0.6
			c1.9,0,2.1-0.4,2.1-2.6v-9.2h-2.2c-2,0-2.3,0.5-2.6,1.7l-0.1,0.4H199l0.2-3.2h13.6L213,141.2z"/>
		<path class="st0" d="M234.5,140.7l-3.2,4.8v2.7c0,2.2,0.3,2.6,2.1,2.6v0.6h-7v-0.6c1.9,0,2.1-0.4,2.1-2.6v-2.6l-3.2-4.9
			c-1.1-1.6-1.7-2-3.2-2v-0.6h7.6v0.6c-1.6,0-2,0.5-1.2,1.7l2.5,3.8l2.5-3.8c0.8-1.2,0.6-1.7-1.2-1.7v-0.6h5.4v0.6
			C235.8,138.7,235.4,139.2,234.5,140.7z"/>
	</g>
	<g>
		<g>
			<path class="st0" d="M21,118H9.2l-2.9,8.7H0l11.9-33.8h6.4l11.9,33.8h-6.3L21,118z M15.1,98.8c0,0-0.8,3.3-1.4,5.2l-3,9.1h8.9
				l-3-9.1c-0.6-1.9-1.3-5.2-1.3-5.2H15.1z"/>
			<path class="st0" d="M35.3,92.9h6.1l12.8,19.5c1.3,1.9,2.8,5.2,2.8,5.2h0.1c0,0-0.3-3.2-0.3-5.2V92.9h6.1v33.8h-6.1L44,107.2
				c-1.3-1.9-2.8-5.2-2.8-5.2h-0.1c0,0,0.3,3.2,0.3,5.2v19.5h-6.1L35.3,92.9L35.3,92.9z"/>
			<path class="st0" d="M71.2,92.9h11.5c10.4,0,17.2,6.2,17.2,16.8s-6.8,16.9-17.2,16.9H71.2V92.9z M82.4,121.4
				c6.9,0,11.2-4.1,11.2-11.7c0-7.5-4.5-11.6-11.2-11.6h-5.1v23.2H82.4z"/>
			<path class="st0" d="M105.7,92.9h20.2v5.3h-14.1v8.8h11.4v5.3h-11.4v9.1h14.8v5.3h-21L105.7,92.9L105.7,92.9z"/>
			<path class="st0" d="M133.4,92.9h10.9c3.7,0,5.3,0.3,6.8,0.9c3.4,1.5,5.5,4.8,5.5,9.2c0,4.1-2.1,7.8-5.7,9.2v0.1
				c0,0,0.5,0.5,1.1,1.7l6.9,12.6h-6.9l-6.7-12.6h-5.9v12.6h-6.1L133.4,92.9L133.4,92.9z M145,108.8c3.3,0,5.3-1.9,5.3-5.3
				c0-3.2-1.4-5.2-6.2-5.2h-4.7v10.6H145z"/>
			<path class="st0" d="M164.8,118c0,0,3.7,3.6,8.4,3.6c2.6,0,4.9-1.3,4.9-4.1c0-6.1-15.9-5-15.9-15.4c0-5.6,4.9-9.8,11.3-9.8
				c6.7,0,10.1,3.6,10.1,3.6l-2.7,5c0,0-3.2-2.9-7.5-2.9c-2.9,0-5.1,1.7-5.1,4.1c0,6,15.9,4.5,15.9,15.3c0,5.4-4.1,9.9-11.1,9.9
				c-7.5,0-11.7-4.6-11.7-4.6L164.8,118z"/>
			<path class="st0" d="M204.3,92.3c9.9,0,17.5,7.6,17.5,17.2c0,9.9-7.5,17.7-17.5,17.7s-17.5-7.8-17.5-17.7
				C186.9,99.9,194.4,92.3,204.3,92.3z M204.3,121.7c6.2,0,11.1-5.1,11.1-12.1c0-6.7-4.9-11.6-11.1-11.6s-11.1,4.9-11.1,11.6
				C193.2,116.5,198.1,121.7,204.3,121.7z"/>
			<path class="st0" d="M226.6,92.9h6.1l12.8,19.5c1.3,1.9,2.8,5.2,2.8,5.2h0.1c0,0-0.3-3.2-0.3-5.2V92.9h6.1v33.8h-6.1l-12.8-19.5
				c-1.3-1.9-2.8-5.2-2.8-5.2h-0.1c0,0,0.3,3.2,0.3,5.2v19.5h-6.1L226.6,92.9L226.6,92.9z"/>
		</g>
	</g>
	<g>
		<polygon class="st0" points="39.4,176.8 35,172.1 35,176.8 33,176.8 33,166.9 35,166.9 35,171.4 39,166.9 41.2,166.9 36.9,171.6 
			41.9,176.8 		"/>
		<path class="st0" d="M47.8,176.8v-3.9c0-1.4-0.5-1.9-1.4-1.9c-0.9,0-1.9,0.8-1.9,1.8v4h-1.9v-7.1h1.8l0.1,1.3
			c0.5-0.9,1.5-1.5,2.6-1.5c1.9,0,2.6,1.3,2.6,3.1v4.2H47.8z"/>
		<path class="st0" d="M55.1,177.1c-2.3,0-4-1.7-4-3.8c0-2.1,1.7-3.8,4-3.8c2.3,0,4,1.7,4,3.8C59.1,175.4,57.4,177.1,55.1,177.1
			 M55.1,170.8c-1.3,0-2.1,1-2.1,2.4c0,1.4,0.9,2.4,2.1,2.4s2.1-1,2.1-2.4C57.2,171.8,56.4,170.8,55.1,170.8"/>
		<polygon class="st0" points="68.3,176.8 67,176.8 65.3,172.5 63.6,176.8 62.3,176.8 59.5,169.7 61.3,169.7 63.1,174.3 64.8,169.7 
			66,169.7 67.7,174.3 69.4,169.7 71.2,169.7 		"/>
		<rect x="72.2" y="166.9" class="st0" width="1.9" height="9.9"/>
		<path class="st0" d="M82.2,173.3h-4.8c-0.1,1.1,0.5,2.3,2.4,2.3c0.8,0,1.8-0.4,2.3-0.8v1.4c-0.7,0.5-1.7,0.8-2.9,0.8
			c-2.2,0-3.7-1.6-3.7-3.8c0-2.3,1.8-3.7,3.6-3.7c1.8,0,3.2,1.1,3.2,2.8C82.3,172.6,82.3,173,82.2,173.3 M79.2,170.7
			c-0.8,0-1.5,0.5-1.7,1.6h3.1C80.8,171.4,80.2,170.7,79.2,170.7"/>
		<path class="st0" d="M89.6,176.8l-0.1-1.1c-0.6,0.9-1.7,1.3-2.7,1.3c-1.9,0-3.4-1.6-3.4-3.8s1.4-3.8,3.4-3.8c1,0,1.9,0.4,2.6,1.2
			v-3.8h1.9v9.9L89.6,176.8L89.6,176.8z M87.5,170.9c-1.1,0-2,0.9-2,2.4s0.9,2.4,2,2.4c1.1,0,2-0.9,2-2.4S88.6,170.9,87.5,170.9"/>
		<path class="st0" d="M96.3,180.2c-1.1,0-2.3-0.4-3.1-0.8v-1.5c1.1,0.7,1.9,0.9,3.1,0.9c1.2,0,2.2-0.7,2.2-2.5v-0.5
			c-0.6,0.8-1.6,1.2-2.6,1.2c-1.9,0-3.4-1.6-3.4-3.8s1.4-3.8,3.4-3.8c1,0,2.1,0.5,2.7,1.3l0.1-1.1h1.7v6.4
			C100.4,179.5,98.2,180.2,96.3,180.2 M96.5,170.9c-1.1,0-2,0.9-2,2.4s0.9,2.4,2,2.4c1.1,0,2-0.9,2-2.4S97.7,170.9,96.5,170.9"/>
		<path class="st0" d="M108.4,173.3h-4.8c-0.1,1.1,0.5,2.3,2.4,2.3c0.8,0,1.8-0.4,2.3-0.8v1.4c-0.7,0.5-1.7,0.8-2.9,0.8
			c-2.2,0-3.7-1.6-3.7-3.8c0-2.3,1.8-3.7,3.6-3.7c1.8,0,3.2,1.1,3.2,2.8C108.5,172.6,108.4,173,108.4,173.3 M105.3,170.7
			c-0.8,0-1.5,0.5-1.7,1.6h3.1C106.9,171.4,106.3,170.7,105.3,170.7"/>
		<path class="st0" d="M116.8,170.9v5.9h-1.9v-5.9h-1.3v-1.3h1.3v-0.1c0-2.1,1.1-2.9,2.8-2.9c0.3,0,0.8,0.1,1,0.1v1.2
			c-0.2,0-0.5-0.1-0.7-0.1c-0.8,0-1.1,0.4-1.1,1.6v0.1h1.8v1.3H116.8z"/>
		<path class="st0" d="M122.9,177.1c-2.3,0-4-1.7-4-3.8c0-2.1,1.7-3.8,4-3.8c2.3,0,4,1.7,4,3.8C126.9,175.4,125.2,177.1,122.9,177.1
			 M122.9,170.8c-1.3,0-2.1,1-2.1,2.4c0,1.4,0.9,2.4,2.1,2.4s2.1-1,2.1-2.4C125,171.8,124.1,170.8,122.9,170.8"/>
		<path class="st0" d="M130,172.9v3.9h-1.9v-7.1h1.8l0.1,1.3c0.4-0.8,1.4-1.5,2.7-1.5v1.9C131.3,171,130,171.7,130,172.9"/>
		<polygon class="st0" points="138.2,180 136.4,180 138.3,176.8 136.7,169.7 138.5,169.7 139.5,174.9 142.4,169.7 144.3,169.7 		"/>
		<path class="st0" d="M147.5,177.1c-2.4,0-3.7-1.9-3.4-4.1c0.4-2.1,2.1-3.6,4.2-3.6c2.4,0,3.7,1.9,3.4,4.1
			C151.3,175.6,149.5,177.1,147.5,177.1 M148.2,170.7c-1.1,0-2.1,0.8-2.3,2.4c-0.3,1.7,0.5,2.7,1.6,2.7c1,0,2.1-0.9,2.3-2.4
			C150.2,171.7,149.4,170.7,148.2,170.7"/>
		<path class="st0" d="M159.7,174.6c-0.2,1.1-0.2,1.6-0.2,2.2h-1.7c0-0.3,0-0.8,0.1-1.5c-0.7,1.1-1.9,1.7-2.9,1.7
			c-1.4,0-2.3-1.1-2-2.8l0.8-4.5h1.8l-0.7,4.2c-0.2,1.1,0.3,1.6,1,1.6c0.8,0,2.1-0.8,2.4-2.8l0.5-3h1.8L159.7,174.6z"/>
		<path class="st0" d="M166.5,171.5c-0.1-0.1-0.4-0.1-0.6-0.1c-0.9,0-2,0.4-2.4,2.6l-0.5,2.8h-1.8l0.9-5c0.2-1.1,0.2-1.6,0.2-2.2
			h1.7c0,0.3,0,0.8-0.1,1.5c0.6-0.9,1.6-1.7,2.9-1.7L166.5,171.5z"/>
		<path class="st0" d="M171.3,180.1c-0.8,0-1.4-0.3-1.6-0.6v-1.3c0.2,0.2,0.7,0.4,1.1,0.4c0.7,0,1-0.3,1-1.4v-10.4h2v10.6
			C173.7,179,172.9,180.1,171.3,180.1"/>
		<path class="st0" d="M178.9,177.1c-2.3,0-4-1.7-4-3.8c0-2.1,1.7-3.8,4-3.8c2.3,0,4,1.7,4,3.8C182.9,175.4,181.2,177.1,178.9,177.1
			 M178.9,170.8c-1.3,0-2.1,1-2.1,2.4c0,1.4,0.9,2.4,2.1,2.4s2.1-1,2.1-2.4C181,171.8,180.1,170.8,178.9,170.8"/>
		<path class="st0" d="M189.4,176.8l-0.1-1.3c-0.5,0.9-1.6,1.5-2.6,1.5c-1.9,0-2.6-1.3-2.6-3.1v-4.2h1.9v3.9c0,1.4,0.5,1.9,1.4,1.9
			c0.9,0,1.9-0.8,1.9-1.8v-4h1.9v7.1H189.4z"/>
		<path class="st0" d="M194.9,172.9v3.9H193v-7.1h1.8l0.1,1.3c0.4-0.8,1.4-1.5,2.7-1.5v1.9C196.2,171,194.9,171.7,194.9,172.9"/>
		<path class="st0" d="M203.8,176.8v-3.9c0-1.4-0.5-1.9-1.4-1.9c-0.9,0-1.9,0.8-1.9,1.8v4h-1.9v-7.1h1.8l0.1,1.3
			c0.5-0.9,1.6-1.5,2.6-1.5c1.9,0,2.6,1.3,2.6,3.1v4.2H203.8z"/>
		<path class="st0" d="M213.6,173.3h-4.8c-0.1,1.1,0.5,2.3,2.4,2.3c0.8,0,1.8-0.4,2.3-0.8v1.4c-0.7,0.5-1.7,0.8-2.9,0.8
			c-2.2,0-3.7-1.6-3.7-3.8c0-2.3,1.8-3.7,3.6-3.7c1.8,0,3.2,1.1,3.2,2.8C213.7,172.6,213.6,173,213.6,173.3 M210.6,170.7
			c-0.8,0-1.5,0.5-1.7,1.6h3.1C212.1,171.4,211.6,170.7,210.6,170.7"/>
		<polygon class="st0" points="217.3,180 215.5,180 217.1,176.4 214.1,169.7 216,169.7 218,174.4 219.9,169.7 221.8,169.7 		"/>
	</g>
</g>
</svg>
