<?xml version="1.0" encoding="utf-8"?>
<!-- Generator: Adobe Illustrator 26.0.3, SVG Export Plug-In . SVG Version: 6.00 Build 0)  -->
<svg version="1.1" id="Layer_1" xmlns="http://www.w3.org/2000/svg" xmlns:xlink="http://www.w3.org/1999/xlink" x="0px" y="0px"
	 viewBox="0 0 288 288" style="enable-background:new 0 0 288 288;" xml:space="preserve">
<style type="text/css">
	.st0{opacity:0.2;fill:#BCA270;enable-background:new    ;}
	.st1{fill:#BCA270;stroke:#BCA270;stroke-width:1.1;stroke-miterlimit:10;}
</style>
<polygon class="st0" points="104.53,47.94 119.49,71.92 167.67,71.92 182.85,47.94 "/>
<polygon class="st0" points="182.85,239.78 167.89,215.8 119.71,215.8 104.53,239.78 "/>
<polygon class="st0" points="81.65,69.28 45.35,132.2 75.27,132.2 96.17,94.14 "/>
<polygon class="st0" points="205.73,69.28 241.81,132.2 212.11,132.2 191.21,94.14 "/>
<polygon class="st0" points="81.65,219.1 45.35,156.18 75.27,156.18 96.17,194.02 "/>
<polygon class="st0" points="205.73,219.1 241.81,156.18 212.11,156.18 191.21,194.02 "/>
<g>
	<path d="M132.91,117.68c-1.76,0-3.52,1.1-4.4,2.86l-5.94,12.1c-0.66,1.54-0.66,3.08,0,4.4l5.94,12.1c0.88,1.76,2.64,2.86,4.4,2.86
		h20.9l3.52,7.04l-3.52,7.04h-20.9c-2.86,0-5.06,2.2-5.06,5.06s2.2,5.06,5.06,5.06h7.04v7.04c0,2.86,2.2,5.06,5.06,5.06
		c2.86,0,5.06-2.2,5.06-5.06v-7.26h7.04c1.76,0,3.52-1.1,4.4-2.86l5.94-12.1c0.66-1.54,0.66-3.08,0-4.4l-5.94-12.1
		c-0.88-1.76-2.64-2.86-4.4-2.86h-20.9l-3.74-7.26l3.52-7.04h20.9c2.86,0,5.06-2.2,5.06-5.06c0-2.86-2.2-5.06-5.06-5.06h-7.04v-7.04
		c0-2.86-2.2-5.06-5.06-5.06c-2.86,0-5.06,2.2-5.06,5.06v7.26L132.91,117.68L132.91,117.68z"/>
</g>
<g>
	<path class="st1" d="M115.97,74.34c0.66,1.32,2.2,1.98,3.74,1.98h47.96c1.54,0,2.86-0.66,3.74-1.98l29.92-47.96
		c0.66-1.32,0.88-2.86,0.22-4.4c-0.66-1.32-2.2-2.2-3.74-2.2H89.57c-1.54,0-2.86,0.88-3.74,2.2c-0.66,1.32-0.66,3.08,0,4.4
		L115.97,74.34z M165.47,67.74h-43.56L97.27,28.36h92.62L165.47,67.74z"/>
</g>
<g>
	<path class="st1" d="M11.47,151.78c-1.54,0-2.86,0.66-3.74,2.2c-0.66,1.32-0.66,2.86,0,4.18l53.24,92.4c0.66,1.32,2.2,2.2,3.74,2.2
		s2.86-0.66,3.74-2.2L99.91,196c0.66-1.32,0.66-2.86,0-4.18l-20.68-37.84c-0.66-1.32-2.2-2.2-3.74-2.2
		C75.27,151.78,11.47,151.78,11.47,151.78z M64.71,240l-45.76-79.42h53.68l18.48,33.44L64.71,240z"/>
</g>
<g>
	<path class="st1" d="M222.67,35.4c-1.54,0-2.86,0.66-3.74,2.2l-31.46,54.56c-0.66,1.32-0.66,2.86,0,4.18l20.9,37.84
		c0.66,1.32,2.2,2.2,3.74,2.2h63.8c1.54,0,2.86-0.66,3.74-2.2c0.66-1.32,0.66-2.86,0-4.18l-53.24-92.4
		C225.53,36.28,224.21,35.4,222.67,35.4z M214.53,127.8l-18.48-33.44l26.62-45.98l45.54,79.42
		C268.21,127.8,214.53,127.8,214.53,127.8z"/>
</g>
<g>
	<path class="st1" d="M64.71,35.4c-1.54,0-2.86,0.66-3.74,2.2L7.73,130c-0.66,1.32-0.66,2.86,0,4.18c0.66,1.32,2.2,2.2,3.74,2.2
		h63.8c1.54,0,2.86-0.88,3.74-2.2l20.9-37.84c0.66-1.32,0.66-2.86,0-4.18L68.45,37.6C67.57,36.06,66.03,35.4,64.71,35.4z
		 M72.63,127.8H18.95l45.54-79.64l26.4,45.98L72.63,127.8z"/>
</g>
<g>
	<path class="st1" d="M212.11,151.78c-1.54,0-2.86,0.88-3.74,2.2l-20.9,37.84c-0.66,1.32-0.66,2.86,0,4.18l31.46,54.56
		c0.66,1.32,2.2,2.2,3.74,2.2s2.86-0.66,3.74-2.2l53.24-92.4c0.66-1.32,0.66-2.86,0-4.18s-2.2-2.2-3.74-2.2H212.11L212.11,151.78z
		 M222.67,240l-26.4-45.98l0.66-0.88l17.82-32.78h53.68L222.67,240z"/>
</g>
<g>
	<path class="st1" d="M119.49,211.84c-1.54,0-2.86,0.66-3.74,1.98l-30.14,47.96c-0.66,1.32-0.88,2.86-0.22,4.4
		c0.66,1.32,2.2,2.2,3.74,2.2h108.02c1.54,0,2.86-0.88,3.74-2.2c0.66-1.32,0.66-2.86-0.22-4.4l-30.14-47.96
		c-0.66-1.32-2.2-1.98-3.74-1.98C167.01,211.84,119.49,211.84,119.49,211.84z M189.89,259.8H97.27l24.64-39.6h43.56L189.89,259.8z"
		/>
</g>
</svg>
