<?xml version="1.0" encoding="utf-8"?>
<!-- Generator: Adobe Illustrator 26.0.3, SVG Export Plug-In . SVG Version: 6.00 Build 0)  -->
<svg version="1.1" id="Layer_1" xmlns="http://www.w3.org/2000/svg" xmlns:xlink="http://www.w3.org/1999/xlink" x="0px" y="0px"
	 viewBox="0 0 288 288" style="enable-background:new 0 0 288 288;" xml:space="preserve">
<style type="text/css">
	.st0{opacity:0.2;fill:#BCA270;enable-background:new    ;}
	.st1{opacity:0.15;fill:#363434;enable-background:new    ;}
	.st2{fill:#BCA270;}
	.st3{fill:#363434;}
</style>
<polygon class="st0" points="249.61,145.58 198.81,166.78 151.61,142.98 153.21,159.98 173.61,170.38 173.61,223.78 226.81,202.38 
	226.81,171.38 238.21,166.78 "/>
<polygon class="st1" points="130.61,209.78 89.81,222.78 43.41,206.58 52.21,225.78 71.01,232.38 61.61,232.38 61.61,257.98 
	114.81,257.98 114.81,232.38 110.61,232.38 121.01,229.18 "/>
<path class="st2" d="M267.81,115.98l-4.2-9.8c-0.6-1-1.4-1.8-2.4-2.2s-2.2-0.2-3.2,0.6l-22.6,15.4v-71.2c0-1.6-1.2-3.2-2.8-3.6
	l-13-3.4c-1-0.4-2.2,0-3,0.6c-0.8,0.6-1.6,1.6-1.6,2.6l-3.8,25.4l-1.6-34.8c0-1.6-1.2-3-2.8-3.6l-13-3c-1.2-0.4-2.2,0-3.2,0.6
	c-0.8,0.6-1.6,1.6-1.6,2.8l-2,37.4l-3.6-24.6c-0.2-1-0.6-2-1.6-2.6c-0.8-0.6-2-0.8-3-0.6l-13,3.4c-1.6,0.6-2.8,2-2.8,3.8l1,37.2
	l-3.6-9.2c-0.6-1.8-2.8-2.8-4.6-2.2l-9.8,3.4c-1.6,0.6-2.6,2.2-2.6,3.8l6.6,78.6c0.2,1.4,0.8,2.6,2,3l18.4,9.2v86.2h60.8v-85.2
	l9.2-3.8c0.8-0.4,1.6-1,1.8-1.6l26.4-49.2C268.41,118.18,268.41,116.98,267.81,115.98z M223.41,251.78h-46.6v-75.6l20.2,10.2
	c0.6,0.4,1.2,0.4,1.6,0.4s1-0.2,1.6-0.4l23.2-9.6L223.41,251.78L223.41,251.78z M235.41,163.58l-36.4,15.2l-42.4-21.2l-6.2-73.4
	l3.6-1.2l10.2,26.4c0.6,1.6,2.6,2.6,4.2,2.4c1.8-0.4,3-2,3-3.8l-1.6-56l6-1.6l8.6,58.2c0.4,2,2,3.4,3.8,3.2c2-0.2,3.6-1.6,3.6-3.6
	l4.2-71.2l5.8,1.6l3.4,69.4c0.2,2,1.6,3.6,3.6,3.6c2,0.2,3.6-1.4,3.8-3.2l8.8-58.2l6.2,1.6v75.6c0,1.4,0.8,2.6,2,3.4
	s2.6,0.6,3.8-0.2l24.8-17l1.6,3.8L235.41,163.58z"/>
<path class="st3" d="M137.81,202.78v-68.2c0-1.4-0.6-2.6-1.6-3.2l-9.8-6.6c-1.4-0.8-2.8-0.8-4.2,0l-4,2.6v-12.6c0-1-0.4-2-1.2-2.6
	l-9.8-9.8c-0.6-0.6-1.6-1.2-2.6-1.2l0,0c-1,0-2,0.4-2.6,1.2l-3.4,3.4v-7.2c0-1-0.4-2-1.2-2.6l-9.8-9.8c-0.6-0.6-1.6-1.2-2.6-1.2l0,0
	c-1,0-2,0.4-2.6,1.2l-9.4,9.8c-0.6,0.6-1.2,1.6-1.2,2.6v7.2l-3.4-3.4c-0.6-0.6-1.6-1.2-2.6-1.2l0,0c-1,0-2,0.4-2.6,1.2l-9.8,9.8
	c-0.6,0.6-1.2,1.6-1.2,2.6v59.6l-13.4-19.2c-0.8-1.4-2.6-2-4-1.6l-13,3.4c-1,0.4-2,1-2.6,2s-0.6,2.2,0,3.2l29.6,65.6
	c0.6,1,1.2,1.6,2.2,2l7.2,2.6v26.6h60.6v-24.8l3.4-1c1-0.4,1.8-1,2.2-1.8l13-26.4l0.4-1h0.2v-0.6L137.81,202.78L137.81,202.78z
	 M111.61,251.78h-46.6v-17.2l23.4,8.2c0.4,0.2,0.8,0.2,1.2,0.2s0.8,0,1.2-0.2l20.6-6.6v15.6H111.61z M118.21,226.38l-28.4,8.8
	l-35-12l-26.8-60l6.2-1.6l18.2,27.4c1,1.4,2.6,2,4.2,1.6c1.6-0.6,2.6-2,2.6-3.6v-70.6l6-6l6,6v50.8c0,2,1.6,3.8,3.8,3.8
	s3.8-1.6,3.8-3.8v-52.4l0,0v-14.8l6-6l6,6v14.8v52.4c0,2,1.6,3.8,3.8,3.8c2,0,3.8-1.6,3.8-3.8v-50.8l6-6l6,6v18.2v32.6
	c0,2,1.6,3.8,3.8,3.8s3.8-1.6,3.8-3.8v-30.6l6-4l6,4v66L118.21,226.38z"/>
</svg>
