<?xml version="1.0" encoding="utf-8"?>
<!-- Generator: Adobe Illustrator 26.0.3, SVG Export Plug-In . SVG Version: 6.00 Build 0)  -->
<svg version="1.1" id="Layer_1" xmlns="http://www.w3.org/2000/svg" xmlns:xlink="http://www.w3.org/1999/xlink" x="0px" y="0px"
	 viewBox="0 0 288 288" style="enable-background:new 0 0 288 288;" xml:space="preserve">
<style type="text/css">
	.st0{fill:#363434;}
	.st1{opacity:0.15;fill:#363434;enable-background:new    ;}
</style>
<g>
	<g>
		<path class="st0" d="M144.38,14.61c1.1,0,1.76,0.22,2.64,0.88l127.82,86.24c0,0,0.22,0,0.22,0.22c0,0,0.22,0,0.22,0.22
			c0.66,0.44,0.88,1.1,1.1,1.54v0.22c0.22,0.22,0.22,0.66,0.22,0.88v0.22l0,0c0,0.22,0,0.66,0,0.88v0.22c0,0.22,0,0.66-0.22,0.88
			v0.22l0,0l-5.72,23.32c-0.66,2.2-2.42,3.52-4.62,3.52h-12.32h-1.54v1.54v108.02v0.44l0.22,0.44l9.9,18.48l0.44,0.88h0.88h8.58
			c2.64,0,4.84,2.2,4.84,4.84c0,2.64-2.2,4.84-4.84,4.84H16.12c-2.64,0-4.84-2.2-4.84-4.84c0-2.64,2.2-4.84,4.84-4.84h3.08h0.88
			l0.44-0.66l15.4-19.14l0.44-0.44v-0.44v-107.8v-1.54h-1.54h-6.16c-1.76,0-3.3-1.1-4.18-2.64l-12.32-23.54l0,0v-0.22
			c-0.22-0.22-0.22-0.44-0.44-0.88v-0.22v-0.22c0-0.44,0-0.88,0-1.1v-0.22l0,0c0-0.44,0-0.66,0.22-1.1v-0.22l0,0
			c0.22-0.44,0.22-0.66,0.44-1.1l0,0l0,0v-0.22c0.22-0.44,0.44-0.66,0.66-0.88l0,0l0,0c0.22-0.22,0.44-0.44,0.66-0.44l127.82-85.36
			C142.4,15.05,143.28,14.61,144.38,14.61 M31.74,101.07h4.84h215.16h4.84l-4.18-2.86l-107.58-72.6l-0.44-0.66l-0.88,0.66
			L35.92,98.21L31.74,101.07 M31.52,124.61h1.1h228.8h1.1l0.22-1.1l3.08-11.22l0.44-1.76h-1.98H26.24h-2.42l1.1,2.2l6.16,11.22
			L31.52,124.61 M227.54,215.69h1.54h12.32h1.54v-1.54v-78.54v-1.54h-1.54h-12.54h-1.54v1.54v78.54L227.54,215.69 M191.9,240.11
			h1.54h23.1h1.54v-1.54V135.39v-1.54h-1.54h-23.1h-1.54v1.54v103.18L191.9,240.11 M167.26,215.69h1.54h12.32h1.54v-1.54v-78.54
			v-1.54h-1.54H168.8h-1.54v1.54v78.54V215.69 M130.52,240.11h1.54h24.64h1.54v-1.54V135.39v-1.54h-1.54h-24.86h-1.54v1.54v103.18
			L130.52,240.11 M105.66,215.69h1.54h12.32h1.54v-1.54v-78.54v-1.54h-1.54H107.2h-1.54v1.54v78.54V215.69 M70.24,240.11h1.54h23.1
			h1.54v-1.54V135.39v-1.54h-1.54H71.56h-1.54v1.54v103.18L70.24,240.11 M45.6,215.69h1.54h12.32H61v-1.54v-78.54v-1.54h-1.54H47.14
			H45.6v1.54v78.54L45.6,215.69 M227.54,240.11h1.54h12.32h1.54v-1.54v-12.32v-1.54h-1.54h-12.54h-1.54v1.54v12.32L227.54,240.11
			 M167.26,240.11h1.54h12.32h1.54v-1.54v-12.32v-1.54h-1.54H168.8h-1.54v1.54v12.32V240.11 M105.66,240.11h1.54h12.32h1.54v-1.54
			v-12.32v-1.54h-1.54H107.2h-1.54v1.54v12.32V240.11 M45.6,240.11h1.54h12.32H61v-1.54v-12.32v-1.54h-1.54H47.14H45.6v1.54v12.32
			L45.6,240.11 M222.92,249.79L222.92,249.79h-35.64l0,0h-24.64l0,0h-36.96l0,0h-24.64l0,0H65.62l0,0H44.06h-0.88l-0.44,0.66
			l-9.24,10.78l-1.76,2.42h3.08h215.16h2.42l-1.1-2.2l-6.16-10.78l-0.44-0.88h-0.88H222.92"/>
	</g>
	<g>
		<path class="st0" d="M144.38,45.63c1.1,0,2.42,0.44,3.3,1.32l18.48,18.48c0.88,0.88,1.32,1.98,1.32,3.3c0,1.1-0.66,2.42-1.32,3.3
			l-18.48,18.48c-0.88,0.88-1.98,1.32-3.3,1.32c-1.1,0-2.42-0.44-3.3-1.32L122.6,72.03c-0.88-0.88-1.32-1.98-1.32-3.3
			c0-1.1,0.66-2.42,1.32-3.3l18.48-18.48C141.74,46.07,142.84,45.63,144.38,45.63 M144.38,80.61l1.1-1.1l9.68-9.68l1.1-1.1l-1.1-1.1
			l-9.68-10.12l-1.1-0.88l-1.1,0.88l-9.9,10.34l-1.1,1.1l1.1,0.88l9.68,9.68L144.38,80.61"/>
	</g>
</g>
<rect x="65.62" y="129.45" class="st1" width="35.64" height="115.5"/>
<rect x="125.68" y="129.45" class="st1" width="36.96" height="115.5"/>
<rect x="187.28" y="129.45" class="st1" width="35.64" height="115.5"/>
<polygon class="st1" points="185.96,47.17 158.9,64.99 162.64,68.73 144.38,87.21 136.68,79.95 97.96,105.69 272.2,105.69 "/>
</svg>
